<svg height="480pt" viewBox="0 -8 480.09942 480" width="480pt" xmlns="http://www.w3.org/2000/svg"><path d="m456 200.050781c-13.253906 0-24 10.742188-24 24 .019531 1.417969.160156 2.828125.425781 4.222657l-72.800781 41.679687c-5.8125-5.226563-13.878906-7.144531-21.425781-5.101563l-29.832031-44.707031 51.320312-61.695312c5.992188 2.300781 12.664062 2.070312 18.480469-.648438 5.816406-2.714843 10.277343-7.679687 12.359375-13.75h42.945312c3.894532 11.019531 15.164063 17.628907 26.683594 15.652344 11.523438-1.976563 19.941406-11.964844 19.941406-23.652344 0-11.691406-8.417968-21.679687-19.941406-23.65625-11.519531-1.976562-22.789062 4.636719-26.683594 15.65625h-42.945312c-2.996094-8.632812-10.648438-14.800781-19.71875-15.898437-9.070313-1.097656-17.976563 3.066406-22.945313 10.730468-4.972656 7.664063-5.140625 17.492188-.4375 25.328126l-48.347656 58.054687-15.941406-23.886719c3.140625-4.117187 4.847656-9.152344 4.863281-14.328125 0-13.257812-10.746094-24-24-24s-24 10.742188-24 24c.023438 3.851563.988281 7.636719 2.808594 11.03125l-39.199219 42.28125-70.304687-74.402343c1.761718-3.367188 2.6875-7.109376 2.695312-10.910157.023438-11.675781-8.378906-21.664062-19.886719-23.644531-11.507812-1.976562-22.761719 4.632812-26.640625 15.644531h-41.472656v-94.058593h25.945312l-25.945312-25.941407-8-7.9999998-8 7.9999998-25.945312 25.941407h25.945312v382.058593h-32v16h32v32h16v-32h382.054688v25.941407l25.945312-25.941407 8-8-33.945312-33.945312v25.945312h-382.054688v-272h41.472656c2.1875 6.304688 6.921875 11.402344 13.046875 14.050781 6.128907 2.644532 13.085938 2.59375 19.175781-.140624l70.976563 75.199218-23.128906 24.890625c-9.8125-4.238281-21.246094-1.476562-28.039063 6.777344-6.796875 8.253906-7.3125 20.003906-1.273437 28.820313l-37.453125 51.539062c-2.191406-.710938-4.476563-1.09375-6.777344-1.136719-13.253906 0-24 10.742188-24 24 0 13.253907 10.746094 24 24 24s24-10.746093 24-24c.011719-4.859375-1.464844-9.605469-4.230469-13.601562l37.453125-51.535157c2.191406.707032 4.476563 1.089844 6.777344 1.136719 13.253906 0 24-10.746093 24-24-.023438-3.851562-.988281-7.636719-2.808594-11.03125l22.488282-24.242187 23.039062 24.398437c-1.761719 3.355469-2.691406 7.085938-2.71875 10.875 0 13.253907 10.746094 24 24 24s24-10.746093 24-24c-.023438-4.289062-1.207031-8.492187-3.425781-12.160156l29.089843-34.929687 27.199219 40.800781c-6.324219 8.355469-6.496093 19.847656-.421875 28.390625 6.070313 8.539062 16.980469 12.152344 26.953125 8.925781 9.96875-3.226563 16.691407-12.550781 16.605469-23.027344-.019531-1.417969-.160156-2.832031-.425781-4.226562l72.800781-41.679688c4.324219 3.792969 9.875 5.890625 15.625 5.90625 13.253906 0 24-10.746093 24-24 0-13.257812-10.746094-24-24-24zm-199.6875 57.597657c-5.828125-2.257813-12.320312-2.070313-18.007812.519531l-23.710938-25.109375 39.871094-42.976563c4.828125 2.164063 10.257812 2.585938 15.367187 1.199219l18.566407 27.832031zm0 0"/></svg>