<?xml version="1.0" encoding="iso-8859-1"?>
<!-- Generator: Adobe Illustrator 19.0.0, SVG Export Plug-In . SVG Version: 6.00 Build 0)  -->
<svg version="1.1" id="Capa_1" xmlns="http://www.w3.org/2000/svg" xmlns:xlink="http://www.w3.org/1999/xlink" x="0px" y="0px"
	 viewBox="0 0 512 512" style="enable-background:new 0 0 512 512;" xml:space="preserve">
<g>
	<g>
		<path d="M451,377.485V347c0-87.125-57.457-162.063-136.456-186.989c0.526-2.239,1.456-4.365,1.456-6.711
			c0-14.941-11.221-27.803-26.133-29.912c-11.016-1.582-22.412-2.373-33.867-2.373s-22.837,0.791-33.853,2.373
			C207.235,125.497,196,138.358,196,153.3c0,2.346,0.93,4.471,1.456,6.711C118.455,184.935,61,259.873,61,347v30.483
			C40.761,392.427,31,414.476,31,437c0,41.413,33.503,75,75,75h300c41.413,0,75-33.503,75-75
			C481,414.645,471.418,392.558,451,377.485z M256,332c24.814,0,45,20.186,45,45c0,19.53-12.578,36.024-30,42.237V452h-30v-32.763
			c-17.422-6.213-30-22.707-30-42.237h30c0,8.276,6.724,15,15,15s15-6.724,15-15s-6.724-15-15-15c-24.814,0-45-20.186-45-45
			c0-19.53,12.578-36.024,30-42.237V242h30v32.763c17.422,6.213,30,22.707,30,42.237h-30c0-8.276-6.724-15-15-15s-15,6.724-15,15
			S247.724,332,256,332z"/>
	</g>
</g>
<g>
	<g>
		<path d="M181,0v15c0,30.222,12.059,59.123,32.534,79.726c12.684-2.794,30.009-3.711,42.466-3.711
			c12.506,0,29.669,0.906,42.468,3.708C318.941,74.121,331,45.22,331,15V0H181z"/>
	</g>
</g>
<g>
</g>
<g>
</g>
<g>
</g>
<g>
</g>
<g>
</g>
<g>
</g>
<g>
</g>
<g>
</g>
<g>
</g>
<g>
</g>
<g>
</g>
<g>
</g>
<g>
</g>
<g>
</g>
<g>
</g>
</svg>
