<?xml version="1.0" encoding="iso-8859-1"?>
<!-- Generator: Adobe Illustrator 19.0.0, SVG Export Plug-In . SVG Version: 6.00 Build 0)  -->
<svg version="1.1" id="Capa_1" xmlns="http://www.w3.org/2000/svg" xmlns:xlink="http://www.w3.org/1999/xlink" x="100px" y="0px"
	 viewBox="0 0 512 512" style="enable-background:new 0 0 512 512;" xml:space="preserve">
<g>
	<g>
		<path d="M281.597,251.616c-5.863,5.863-15.352,5.863-21.215,0c-5.861-5.861-5.861-15.35,0-21.213L490.787,0h-78.638
			c-3.977,0-7.789,1.575-10.607,4.391L215.708,190.225c-58.749-19.017-123.519-3.759-167.457,40.179
			c-64.334,64.334-64.334,169.012,0,233.346s169.012,64.334,233.346,0c43.762-43.762,59.072-108.17,40.417-166.743l61.258-23.348
			c5.934-1.192,10.574-5.832,11.766-11.766l8.648-43.224l43.224-8.65c5.936-1.19,10.576-5.832,11.768-11.766L466.881,157h30.121
			c8.286,0,14.998-6.436,14.998-14.723V21.213L281.597,251.616z M154.316,421.322c-17.545,17.547-46.093,17.547-63.638,0
			c-17.547-17.545-17.547-46.093,0-63.638c17.545-17.547,46.093-17.547,63.638,0C171.863,375.229,171.863,403.777,154.316,421.322z"
			/>
	</g>
</g>
<g>
</g>
<g>
</g>
<g>
</g>
<g>
</g>
<g>
</g>
<g>
</g>
<g>
</g>
<g>
</g>
<g>
</g>
<g>
</g>
<g>
</g>
<g>
</g>
<g>
</g>
<g>
</g>
<g>
</g>
</svg>
