<svg height="512" viewBox="0 0 16 16" width="512" xmlns="http://www.w3.org/2000/svg"><path d="m11 0h-8c-1.6543 0-3 1.3457-3 3v10c0 1.10303.896973 2 2 2 0 .552246.447754 1 1 1h1c.552246 0 1-.447754 1-1h4c0 .552246.447754 1 1 1h1c.552246 0 1-.447754 1-1 1.10303 0 2-.896973 2-2v-10c0-1.6543-1.3457-3-3-3zm-7 12c-.552307 0-1-.447754-1-1 0-.552307.447693-1 1-1 .552246 0 1 .447693 1 1 0 .552246-.447754 1-1 1zm6 0c-.552307 0-1-.447754-1-1 0-.552307.447693-1 1-1 .552246 0 1 .447693 1 1 0 .552246-.447754 1-1 1zm-3-4c-1.7746 0-3.85999-.228821-5-.373352v-4.62665c0-.55127.44873-1 1-1h8c.55127 0 1 .44873 1 1l.0006714 4.62659c-1.13983.144531-3.22565.373413-5.00067.373413z" transform="translate(1)"/></svg>