<svg id="Capa_1" enable-background="new 0 0 512 512" height="512" viewBox="0 0 512 512" width="512" xmlns="http://www.w3.org/2000/svg"><path d="m467 31h-422c-24.813 0-45 20.187-45 45v240c0 24.813 20.187 45 45 45h106v105c0 8.292 6.733 15 14.997 15 3.904 0 7.741-1.524 10.61-4.394l115.606-115.606h174.787c24.813 0 45-20.187 45-45v-240c0-24.813-20.187-45-45-45zm-361 90h120c8.284 0 15 6.716 15 15s-6.716 15-15 15h-120c-8.284 0-15-6.716-15-15s6.716-15 15-15zm300 150h-300c-8.284 0-15-6.716-15-15s6.716-15 15-15h300c8.284 0 15 6.716 15 15s-6.716 15-15 15zm0-60h-300c-8.284 0-15-6.716-15-15s6.716-15 15-15h300c8.284 0 15 6.716 15 15s-6.716 15-15 15zm0-60h-120c-8.284 0-15-6.716-15-15s6.716-15 15-15h120c8.284 0 15 6.716 15 15s-6.716 15-15 15z"/></svg>