<?xml version="1.0" encoding="iso-8859-1"?>
<!-- Generator: Adobe Illustrator 16.0.0, SVG Export Plug-In . SVG Version: 6.00 Build 0)  -->
<!DOCTYPE svg PUBLIC "-//W3C//DTD SVG 1.1//EN" "http://www.w3.org/Graphics/SVG/1.1/DTD/svg11.dtd">
<svg version="1.1" id="Capa_1" xmlns="http://www.w3.org/2000/svg" xmlns:xlink="http://www.w3.org/1999/xlink" x="0px" y="0px"
	 width="600.846px" height="600.846px" viewBox="0 0 600.846 600.846" style="enable-background:new 0 0 600.846 600.846;"
	 xml:space="preserve">
<g>
	<g>
		<path d="M0,553.989h600.846V151.59H496.112v-49.61c0-30.395-24.729-55.123-55.123-55.123H170.882
			c-30.395,0-55.123,24.729-55.123,55.123v49.61H0V553.989z M159.856,101.979c0-6.077,4.948-11.025,11.025-11.025h270.103
			c6.077,0,11.025,4.948,11.025,11.025v49.61H159.856V101.979z M115.759,256.323h363.815v27.563H115.759V256.323z M115.759,347.276
			h363.815v27.564H115.759V347.276z M115.759,438.23h363.815v27.563H115.759V438.23z"/>
	</g>
</g>
<g>
</g>
<g>
</g>
<g>
</g>
<g>
</g>
<g>
</g>
<g>
</g>
<g>
</g>
<g>
</g>
<g>
</g>
<g>
</g>
<g>
</g>
<g>
</g>
<g>
</g>
<g>
</g>
<g>
</g>
</svg>
